<?xml version="1.0" encoding="UTF-8"?>
<!DOCTYPE svg PUBLIC "-//W3C//DTD SVG 1.1//EN" "http://www.w3.org/Graphics/SVG/1.1/DTD/svg11.dtd">
<svg xmlns="http://www.w3.org/2000/svg" version="1.1" width="3400px" height="1171px" style="shape-rendering:geometricPrecision; text-rendering:geometricPrecision; image-rendering:optimizeQuality; fill-rule:evenodd; clip-rule:evenodd" xmlns:xlink="http://www.w3.org/1999/xlink">
<g><path style="opacity:0.737" fill="#452fab" d="M 531.5,200.5 C 532.946,199.387 534.613,199.22 536.5,200C 646.336,264.086 756.336,327.919 866.5,391.5C 867.833,520.833 867.833,650.167 866.5,779.5C 755.757,843.428 644.924,907.095 534,970.5C 422.65,907.239 311.483,843.572 200.5,779.5C 199.168,650.001 199.168,520.667 200.5,391.5C 225.223,463.502 250.057,535.502 275,607.5C 360.708,471.916 446.542,336.416 532.5,201C 532.272,200.601 531.938,200.435 531.5,200.5 Z"/></g>
<g><path style="opacity:0.302" fill="#452bac" d="M 531.5,200.5 C 531.938,200.435 532.272,200.601 532.5,201C 446.542,336.416 360.708,471.916 275,607.5C 250.057,535.502 225.223,463.502 200.5,391.5C 310.553,327.469 420.886,263.803 531.5,200.5 Z"/></g>
<g><path style="opacity:0.991" fill="#2a0447" d="M 1157.5,423.5 C 1180.17,423.5 1202.83,423.5 1225.5,423.5C 1225.33,519.834 1225.5,616.167 1226,712.5C 1228.68,723.548 1231.51,734.548 1234.5,745.5C 1214.84,746.666 1195.18,746.833 1175.5,746C 1173,740.673 1171,735.173 1169.5,729.5C 1157.62,734.437 1145.96,739.937 1134.5,746C 1113.17,746.667 1091.83,746.667 1070.5,746C 1054.33,729.833 1038.17,713.667 1022,697.5C 1021.33,649.167 1021.33,600.833 1022,552.5C 1037.83,536.667 1053.67,520.833 1069.5,505C 1092.17,504.333 1114.83,504.333 1137.5,505C 1147.08,509.706 1156.58,514.539 1166,519.5C 1166.67,499.5 1166.67,479.5 1166,459.5C 1162.85,447.557 1160.01,435.557 1157.5,423.5 Z M 1107.5,554.5 C 1117.84,554.334 1128.17,554.5 1138.5,555C 1143.83,557.667 1149.17,560.333 1154.5,563C 1158.72,569.928 1162.55,577.095 1166,584.5C 1166.67,611.5 1166.67,638.5 1166,665.5C 1162.5,672.5 1159,679.5 1155.5,686.5C 1141.31,696.224 1125.64,699.391 1108.5,696C 1103.17,693.333 1097.83,690.667 1092.5,688C 1088.95,682.406 1085.79,676.573 1083,670.5C 1082.33,640.167 1082.33,609.833 1083,579.5C 1085.67,574.167 1088.33,568.833 1091,563.5C 1096.64,560.599 1102.14,557.599 1107.5,554.5 Z"/></g>
<g><path style="opacity:0.993" fill="#2a0447" d="M 2784.5,423.5 C 2806.83,423.5 2829.17,423.5 2851.5,423.5C 2851.33,519.167 2851.5,614.834 2852,710.5C 2855.15,722.443 2857.99,734.443 2860.5,746.5C 2840.83,746.5 2821.17,746.5 2801.5,746.5C 2799.84,740.345 2797.67,734.345 2795,728.5C 2783.58,734.461 2772.08,740.294 2760.5,746C 2739.17,746.667 2717.83,746.667 2696.5,746C 2680.33,729.833 2664.17,713.667 2648,697.5C 2647.33,649.5 2647.33,601.5 2648,553.5C 2664.17,537.333 2680.33,521.167 2696.5,505C 2719.17,504.333 2741.83,504.333 2764.5,505C 2773.5,509.5 2782.5,514 2791.5,518.5C 2792.67,497.841 2792.83,477.175 2792,456.5C 2789.02,445.588 2786.52,434.588 2784.5,423.5 Z M 2734.5,554.5 C 2744.84,554.334 2755.17,554.5 2765.5,555C 2770.83,557.667 2776.17,560.333 2781.5,563C 2785.13,569.755 2788.63,576.588 2792,583.5C 2792.67,611.167 2792.67,638.833 2792,666.5C 2788.67,673.167 2785.33,679.833 2782,686.5C 2768.01,696.238 2752.51,699.405 2735.5,696C 2729.83,693.167 2724.17,690.333 2718.5,687.5C 2715.41,682.325 2712.58,676.992 2710,671.5C 2709.33,640.833 2709.33,610.167 2710,579.5C 2712.67,574.167 2715.33,568.833 2718,563.5C 2723.64,560.599 2729.14,557.599 2734.5,554.5 Z"/></g>
<g><path style="opacity:0.984" fill="#2a0447" d="M 1434.5,504.5 C 1463.17,504.333 1491.84,504.5 1520.5,505C 1535,519.5 1549.5,534 1564,548.5C 1564.33,599.833 1564.67,651.167 1565,702.5C 1570.83,716.833 1576.67,731.167 1582.5,745.5C 1561.84,746.5 1541.18,746.833 1520.5,746.5C 1518.28,738.847 1515.28,731.514 1511.5,724.5C 1497.17,731.667 1482.83,738.833 1468.5,746C 1448.17,746.667 1427.83,746.667 1407.5,746C 1395.67,734.167 1383.83,722.333 1372,710.5C 1371.17,685.493 1371.33,660.493 1372.5,635.5C 1396.17,623.667 1419.83,611.833 1443.5,600C 1463.88,594.988 1484.21,589.821 1504.5,584.5C 1505.65,581.554 1505.82,578.554 1505,575.5C 1502.33,570.167 1499.67,564.833 1497,559.5C 1491.41,555.952 1485.57,552.785 1479.5,550C 1468.17,549.333 1456.83,549.333 1445.5,550C 1423.24,557.308 1401.08,564.808 1379,572.5C 1384.03,554.405 1389.7,536.405 1396,518.5C 1408.88,513.71 1421.71,509.043 1434.5,504.5 Z M 1501.5,626.5 C 1502.83,626.5 1504.17,626.5 1505.5,626.5C 1505.83,645.512 1505.5,664.512 1504.5,683.5C 1494.83,688.333 1485.17,693.167 1475.5,698C 1466.17,698.667 1456.83,698.667 1447.5,698C 1443.25,695.961 1439.09,693.794 1435,691.5C 1426.33,678.5 1426.33,665.5 1435,652.5C 1446.42,646.539 1457.92,640.706 1469.5,635C 1480.37,632.451 1491.04,629.618 1501.5,626.5 Z"/></g>
<g><path style="opacity:0.986" fill="#2a0447" d="M 1679.5,504.5 C 1706.5,504.5 1733.5,504.5 1760.5,504.5C 1759,517.163 1757.83,529.83 1757,542.5C 1769.94,580.326 1782.28,618.326 1794,656.5C 1805.29,617.285 1817.79,578.452 1831.5,540C 1829.63,528.229 1827.97,516.396 1826.5,504.5C 1852.18,504.167 1877.84,504.5 1903.5,505.5C 1896.73,518.711 1890.23,532.044 1884,545.5C 1861.67,611.833 1839.33,678.167 1817,744.5C 1808.73,745.818 1800.23,746.484 1791.5,746.5C 1782.77,746.484 1774.27,745.818 1766,744.5C 1743.33,677.167 1720.67,609.833 1698,542.5C 1691.55,529.934 1685.38,517.267 1679.5,504.5 Z"/></g>
<g><path style="opacity:0.989" fill="#2a0447" d="M 2058.5,504.5 C 2091.5,504.5 2124.5,504.5 2157.5,504.5C 2164.2,525.426 2171.2,546.259 2178.5,567C 2165.41,563.638 2152.41,559.638 2139.5,555C 2125.17,554.333 2110.83,554.333 2096.5,555C 2091.17,557.667 2085.83,560.333 2080.5,563C 2076.95,568.594 2073.79,574.427 2071,580.5C 2070.33,607.833 2070.33,635.167 2071,662.5C 2074.78,670.571 2078.95,678.405 2083.5,686C 2090.17,689.333 2096.83,692.667 2103.5,696C 2114.83,696.667 2126.17,696.667 2137.5,696C 2151.14,691.228 2164.81,686.895 2178.5,683C 2171,704.001 2164,725.168 2157.5,746.5C 2124.5,746.667 2091.5,746.5 2058.5,746C 2042.33,729.833 2026.17,713.667 2010,697.5C 2009.33,649.5 2009.33,601.5 2010,553.5C 2026.37,537.299 2042.54,520.965 2058.5,504.5 Z"/></g>
<g><path style="opacity:0.99" fill="#2a0447" d="M 2348.5,504.5 C 2384.83,504.333 2421.17,504.5 2457.5,505C 2473.67,521.167 2489.83,537.333 2506,553.5C 2506.67,601.5 2506.67,649.5 2506,697.5C 2489.83,713.667 2473.67,729.833 2457.5,746C 2421.17,746.667 2384.83,746.667 2348.5,746C 2332.33,729.833 2316.17,713.667 2300,697.5C 2299.33,649.5 2299.33,601.5 2300,553.5C 2316.37,537.299 2332.54,520.965 2348.5,504.5 Z M 2386.5,554.5 C 2397.51,554.333 2408.51,554.5 2419.5,555C 2424.83,557.667 2430.17,560.333 2435.5,563C 2438.46,568.422 2441.29,573.922 2444,579.5C 2444.67,610.167 2444.67,640.833 2444,671.5C 2441.42,676.992 2438.59,682.325 2435.5,687.5C 2429.83,690.333 2424.17,693.167 2418.5,696C 2408.17,696.667 2397.83,696.667 2387.5,696C 2381.83,693.167 2376.17,690.333 2370.5,687.5C 2367.41,682.325 2364.58,676.992 2362,671.5C 2361.33,640.833 2361.33,610.167 2362,579.5C 2364.67,574.167 2367.33,568.833 2370,563.5C 2375.64,560.599 2381.14,557.599 2386.5,554.5 Z"/></g>
<g><path style="opacity:0.989" fill="#2a0447" d="M 3051.5,504.5 C 3084.83,504.333 3118.17,504.5 3151.5,505C 3167.33,520.833 3183.17,536.667 3199,552.5C 3199.5,581.498 3199.67,610.498 3199.5,639.5C 3154.17,639.5 3108.83,639.5 3063.5,639.5C 3063.33,647.507 3063.5,655.507 3064,663.5C 3067.5,670.5 3071,677.5 3074.5,684.5C 3081.68,688.588 3089.01,692.422 3096.5,696C 3115.83,696.667 3135.17,696.667 3154.5,696C 3167.52,691.045 3180.52,686.879 3193.5,683.5C 3186.5,704.167 3179.5,724.833 3172.5,745.5C 3132.17,746.667 3091.84,746.833 3051.5,746C 3035.33,729.833 3019.17,713.667 3003,697.5C 3002.33,649.5 3002.33,601.5 3003,553.5C 3019.37,537.299 3035.54,520.965 3051.5,504.5 Z M 3090.5,549.5 C 3097.84,549.334 3105.17,549.5 3112.5,550C 3118.57,552.785 3124.41,555.952 3130,559.5C 3132.67,564.833 3135.33,570.167 3138,575.5C 3138.5,583.159 3138.67,590.826 3138.5,598.5C 3113.5,598.5 3088.5,598.5 3063.5,598.5C 3063.33,591.159 3063.5,583.826 3064,576.5C 3066.83,570.833 3069.67,565.167 3072.5,559.5C 3078.56,556.139 3084.56,552.806 3090.5,549.5 Z"/></g>
</svg>
